<?xml version="1.0" standalone="no"?>
<!DOCTYPE svg PUBLIC "-//W3C//DTD SVG 20010904//EN"
 "http://www.w3.org/TR/2001/REC-SVG-20010904/DTD/svg10.dtd">
<svg version="1.0" xmlns="http://www.w3.org/2000/svg"
 width="612.000000pt" height="612.000000pt" viewBox="0 0 612.000000 612.000000"
 preserveAspectRatio="xMidYMid meet">
<metadata>
Created by potrace 1.14, written by Peter Selinger 2001-2017
</metadata>
<g transform="translate(0.000000,612.000000) scale(0.100000,-0.100000)"
fill="#000000" stroke="none">
<path d="M0 3060 l0 -3060 3060 0 3060 0 0 3060 0 3060 -3060 0 -3060 0 0
-3060z m2316 1112 c78 -119 220 -336 314 -482 95 -146 176 -269 181 -274 7 -8
99 120 99 139 0 6 -40 72 -88 146 -247 376 -442 678 -442 683 0 3 65 6 143 6
131 0 145 -2 153 -19 19 -39 377 -581 385 -581 7 0 79 106 224 330 37 58 92
142 122 188 l54 82 144 0 144 0 -89 -137 c-49 -76 -160 -247 -247 -380 -87
-133 -255 -391 -373 -573 -118 -181 -218 -330 -221 -330 -8 0 -73 97 -406 610
-148 228 -327 502 -396 608 -70 106 -127 194 -127 197 0 3 64 5 143 5 l142 0
141 -218z m1905 201 c-9 -17 -64 -101 -591 -909 -135 -206 -341 -522 -458
-702 l-212 -326 0 -351 1 -350 -120 -3 -121 -3 0 391 0 392 301 461 c165 254
412 633 549 842 137 209 276 424 310 478 l61 97 145 0 c135 0 144 -1 135 -17z
m-851 -2128 l0 -515 -120 0 -120 0 0 335 0 334 116 181 c64 99 118 180 120
180 2 0 4 -232 4 -515z"/>
</g>
</svg>
